<?xml version="1.0" encoding="UTF-8"?>
<svg id="Warstwa_1" data-name="Warstwa 1" xmlns="http://www.w3.org/2000/svg" viewBox="0 0 1000 1000">
  <defs>
    <style>
      .cls-1 {
        fill: #293a59;
      }
    </style>
  </defs>
  <path class="cls-1" d="m626.64,960.97c-.4-.63-.69-1.67-1.23-1.82-10.53-3.04-17.49-14.22-17.68-25.65-.04-2.1-.34-4.27.06-6.29,1.14-5.73-2.61-9.6-5.28-13.64-4.38-6.63-9.41-12.83-14.24-19.16-.61-.8-1.63-1.86-2.45-1.85-5.37.05-10.73.48-16.09.56-3.99.06-7.98-.3-11.98-.3-96.8-.03-193.59-.08-290.39,0-14.06.01-28.15.44-41.69-3.97-6.48-2.11-13.12-4.53-18.77-8.22-8.7-5.68-17.03-11.77-23.7-20.36-5.99-7.72-11.56-15.53-14.5-24.63-3.32-10.25-5.26-20.97-7.46-31.55-.48-2.31.72-4.92.72-7.39.04-224.66-.02-449.32.2-673.98.01-10.92,3.3-21.6,8.19-31.59,9.97-20.36,25.09-35.42,45.88-44.6,9.74-4.3,19.9-6.71,30.65-6.74,108-.25,216-.67,324.01-.74,13.27,0,26.53,1.6,38.88,7.38,22.19,10.38,39.42,25.68,48.04,49.16,4.6,12.54,6.5,25.68,6.5,39.07,0,130.86,0,261.73.01,392.59,0,5.1.26,10.21.01,15.3-.17,3.49,1.18,4.3,4.43,4.27,17.56-.13,35.14-.7,52.66.12,17.17.8,32.75,6.2,42.22,22.1,4.41,7.39,8.22,15.16,12,22.9,7.11,14.54,14.19,29.11,20.96,43.81,6.78,14.73,12.74,29.86,19.83,44.43,8.09,16.61,14.36,33.8,18.4,51.75,2.1,9.34,4.4,19.05,3.93,28.46-.9,17.82-3.46,35.57-5.85,53.29-2.06,15.3-4.8,30.51-7.32,45.75-2.09,12.62-4.19,25.24-6.46,37.83-2.11,11.69-5.04,23.27-6.54,35.03-1.65,12.94-5.83,23.33-19.63,27.18-.34.09-.45.98-.67,1.5h-165.68Zm8.73-344.74c0-5.24,0-10.08,0-14.91-.21-155.27-.35-310.55-.77-465.82-.03-9.44-1.01-19.23-3.66-28.24-4.61-15.66-16.02-27.04-30.31-33.51-9.62-4.36-21.3-5.73-32.06-5.77-104.3-.4-208.59-.21-312.89-.27-17.47-.01-33.28,4.92-45.91,16.94-11.41,10.86-18.01,24.77-18.82,40.7-.52,10.12.37,20.3.37,30.45.01,214.9-.04,429.79.07,644.69,0,7.51.13,15.56,2.68,22.44,6.89,18.57,20.01,32.02,39.13,37.85,8.57,2.61,18.1,2.82,27.19,2.84,97.39.19,194.79.12,292.18.11,5.1,0,10.21.15,15.29-.17.93-.06,2.72-2.61,2.45-3.09-7.98-14.27-9.99-30.14-10.96-45.85-1.23-20.04-.78-40.19-.77-60.3.02-30.61-.22-61.23.61-91.82.52-19.26,17.87-40.1,36.1-46.63,13.03-4.67,25.79-4.08,40.07.37Zm28.48-40.4c-.12.65-.26,1.08-.26,1.5,0,17.15-.11,34.3.07,51.44.06,5.43-.19,11.25,1.61,16.2,3.18,8.74,5.22,17.52,5.25,26.74.08,26.56.03,53.11,0,79.67,0,1.47-.47,2.96-.4,4.42.31,6.1-1.19,12.12-.34,18.27,1.21,8.7-5.23,18.17-15.1,17.67-7.31-.37-13.64-7.64-13.63-15.79.03-34.66.06-69.31.02-103.97,0-3.38-.18-6.84-.9-10.13-2.79-12.86-15.04-21.74-28.07-20.46-13.54,1.33-24.08,12.92-24.13,25.62-.17,46.96-.04,93.92-.32,140.88-.08,12.97,1.42,25.54,6.7,37.37,4.89,10.96,9.93,21.91,15.91,32.3,3.9,6.77,9.35,12.72,14.51,18.69,8.87,10.26,14.82,21.35,11.45,36.03h147.6c2.37-14.49,4.52-28.27,6.9-42.02,3.16-18.25,6.69-36.44,9.68-54.71,2.68-16.37,5.39-32.76,7.08-49.25,1.21-11.86,1.2-23.91.94-35.85-.38-17.42-6.28-33.61-13.3-49.24-13.93-30.99-28.41-61.73-42.61-92.6-1.11-2.41-1.61-5.1-2.74-7.48-1.2-2.53-3.27-4.69-4.2-7.29-3.53-9.89-12.43-17.07-22.61-17.31-18.38-.44-36.77-.65-55.15-.93-1.32-.02-2.65.16-3.97.24Z"/>
  <path class="cls-1" d="m506.63,697.18c-3.72-1.2-6.83-2-9.77-3.2-3.01-1.24-5.88-2.82-8.76-4.34-4.69-2.48-8.85-4.11-14.1-.07-4.12,3.16-9.49,5.51-14.61,6.33-6.12.98-7.69,4.86-9.19,9.48-.82,2.52-1.44,5.09-2.23,7.62-3.32,10.68-12.54,17.44-23.72,17.45-6.75,0-13.51-.16-20.25.03-14,.39-21.51-6.58-25.83-18.44-1.14-3.13-1.57-6.55-2.93-9.57-.85-1.88-2.52-3.89-4.34-4.75-6.13-2.91-12.64-5.06-18.73-8.04-5.09-2.49-9.43-2.57-14.63.14-5.55,2.89-11.7,4.87-17.81,6.35-5.64,1.37-10.59-1.43-14.58-5.28-6.91-6.66-13.76-13.4-20.28-20.44-6.64-7.17-8.56-15.9-3.28-24.22,6.83-10.76,7.88-20.82.4-31.41-.67-.94-1.06-2.19-1.22-3.35-1.18-8.14-6.47-11.69-14-13.28-14.57-3.08-22.93-13.88-21.93-28.72.54-8.01-.04-16.16,1.1-24.06,1.24-8.6,6.97-14.33,15.13-17.37,4.23-1.58,8.6-2.78,12.82-4.39,1.3-.49,2.79-1.55,3.34-2.74,3.32-7.24,6.71-14.49,9.38-21.97,1.04-2.89,1.05-6.66.16-9.62-1.28-4.23-3.88-8.06-5.82-12.1-3.4-7.06-2.3-14.26.28-21.1.99-2.62,4.04-4.48,6.2-6.62,4.67-4.62,9.52-9.06,14.03-13.83,7.88-8.34,18.99-9.59,28.19-5.24,1.74.83,3.69,1.41,5.15,2.6,8.66,7.01,16.09,2.88,23.84-1.99,3.2-2.01,7.51-2.19,10.86-4.03,2.21-1.22,4.63-3.68,5.2-6.01,2.58-10.66,6.67-19.77,17.11-25.31,4.17-2.21,8.08-1.46,12.1-1.76,6.9-.52,13.83-.63,20.75-.81.78-.02,1.57.66,2.38.95,8.31,3.01,17.28,5.14,20.3,15.2.96,3.21,2,6.39,2.86,9.62,1.39,5.2,4.14,8.41,9.79,9.89,5.43,1.42,10.73,3.99,15.54,6.94,6.18,3.79,11.13.73,15.96-2.03,13.23-7.55,22.47-7.97,33.55,3.65,4.94,5.18,10.56,9.7,15.49,14.88,7.73,8.12,8.94,16.98,4.27,26.91-1.14,2.43-2.32,4.88-3.78,7.13-2.87,4.42-3.93,8.31-.92,13.61,3.56,6.27,5.19,13.61,8.45,20.09,1.17,2.33,4.45,3.96,7.11,5.08,3.62,1.53,7.69,1.97,11.36,3.41,8.64,3.4,13.43,10.32,13.94,19.2.61,10.57.7,21.32-.56,31.8-1.13,9.39-8.06,14.97-17.01,17.75-2.37.74-4.78,1.59-7.22,1.85-7.52.8-8.08,7.31-10.39,12.34-2.18,4.74-3.75,9.81-6.31,14.32-1.88,3.32-1.56,5.74,0,9,2.73,5.72,4.89,11.72,7.08,17.68,2.26,6.17.64,12.03-3.52,16.5-7.83,8.41-16.01,16.57-24.69,24.1-2.96,2.57-7.85,2.91-11.69,4.21Zm-102.14-273.78c-2.53,6.67-4.22,13.05-7.34,18.64-2.04,3.64-5.66,7.15-9.42,8.93-10.97,5.2-22.41,9.4-33.58,14.18-5.21,2.23-10.35,3.45-15.73.89-4.32-2.05-8.81-3.87-12.79-6.46-3.63-2.36-5.81-1.73-8.73,1.21-8.49,8.55-8.86,8.54-3.14,19.12,5.05,9.34,5.32,18.21.21,27.68-3.58,6.64-6.96,13.64-8.87,20.89-3.22,12.19-10.81,18.89-22.49,22.36-9.05,2.69-8.69,3.07-9.04,13.02-.18,5.33,1.38,8.04,6.94,9.16,12.25,2.45,20.82,9.07,24.43,21.86,2.21,7.81,5.77,15.31,9.41,22.61,4.62,9.28,4.6,18.03-.58,27.04-5.71,9.93-5.41,9.89,2.46,18.3,3.33,3.56,6.12,4.1,10.22,1.3,10.54-7.23,21.42-8.86,33.29-2.39,7.37,4.02,15.33,7.1,23.27,9.88,8.81,3.08,14.49,8.2,16.93,17.59,3.28,12.65,3.72,12.36,16.67,12.5,4.23.04,6.12-1.3,7.01-5.47.88-4.11,2.03-8.46,4.31-11.88,2.51-3.77,5.91-7.67,9.86-9.63,11.23-5.59,22.75-10.69,34.51-15.04,6.75-2.5,14.03-3.57,20.72,1.85,2.69,2.19,6.52,3.13,9.98,4.14,1.35.39,3.47-.11,4.6-1.01,10.13-8.07,10.64-11.12,4.23-22.21-.15-.26-.35-.49-.47-.77-2.93-6.87-5.13-13.42-1.07-21.03,4.36-8.17,7.78-16.9,11.03-25.6,3.77-10.09,9.64-17.4,20.41-20.82,11.63-3.7,11.45-4.16,11.12-16.79-.1-3.93-1.81-5.59-5.81-6.22-10.08-1.58-18.65-5.69-22.93-15.9-4.95-11.83-10.25-23.54-14.86-35.5-1.22-3.17-1.46-7.41-.43-10.59,1.85-5.71,5.07-10.97,7.58-16.48.55-1.21,1.28-3.32.74-3.9-3.45-3.69-7.14-7.17-11-10.43-.64-.54-2.7-.05-3.7.59-12.73,8.24-25.36,11.44-39.13,1.7-4.3-3.05-10.17-3.83-15.22-5.89-8.06-3.29-16.77-5.82-20.21-15.25-1.63-4.47-3.05-9.02-4.87-13.41-.48-1.16-2.05-2.57-3.18-2.63-5.23-.28-10.48-.12-15.35-.12Z"/>
  <path class="cls-1" d="m413.18,155.07c-34.49,0-68.98.05-103.48-.04-6.5-.02-12.03-2.11-15.91-7.99-5.73-8.68,2.05-19.71,10.15-20.72,3.55-.45,7.14-.71,10.71-.71,61.34-.04,122.68-.06,184.01,0,8.06,0,16.17-.03,24.17.78,8.64.88,14.79,9.77,10.19,19.76-3.05,6.63-9.16,8.85-15.93,8.88-34.64.11-69.29.05-103.93.05Z"/>
  <path class="cls-1" d="m319.38,281.11c13.96,11.01,27.59,21.73,41.17,32.51,2.6,2.06,5.11,4.26,7.5,6.57,4.81,4.65,6.29,11.53,3.75,16.61-2.73,5.47-10.6,10.19-16.39,7.99-5.03-1.91-9.17-6.26-13.61-9.64-7.5-5.71-15.01-11.41-22.35-17.31-7.07-5.68-13.93-11.62-20.88-17.45-4.59-3.86-9.33-7.57-13.72-11.65-5.31-4.95-4.33-13.33.36-17.4,6.33-5.49,12.9-10.78,19.82-15.5,14.93-10.18,30.13-19.97,45.27-29.84,3.62-2.36,7.2-4.16,12.03-2.7,11.11,3.34,15,13.97,7.16,22.63-4.58,5.06-10.54,8.99-16.24,12.9-11.04,7.56-22.34,14.74-33.87,22.3Z"/>
  <path class="cls-1" d="m506.19,281.53c-16.16-11.52-31.75-22.43-47.1-33.67-6.69-4.9-7.72-12.93-3.17-19.18,3.84-5.28,12.13-8.44,19.73-3.24,12.27,8.41,24.62,16.7,36.87,25.13,8.64,5.94,17.2,11.99,25.75,18.06,8.19,5.81,9.12,15.28,1.68,22.03-8.3,7.53-16.87,14.8-25.68,21.72-11.21,8.81-22.71,17.24-34.22,25.66-3.27,2.39-6.83,4.6-10.58,6.09-5.23,2.09-9.48-.61-12.68-4.52-3.14-3.83-4.35-7.89-3.06-13.41,1.88-8.05,9.04-10.3,13.88-14.91,8.96-8.54,18.88-16.01,29.57-22.43,3.31-1.99,6.08-4.9,9.01-7.32Z"/>
  <path class="cls-1" d="m380.82,349.99c1.33-5.43,2.83-12.08,4.58-18.65,4.97-18.69,10.04-37.35,15.06-56.02,4.87-18.12,9.3-36.37,14.84-54.29,1.89-6.1,2.12-13.51,9.08-17.5,7.52-4.32,17.35-.46,19.77,7.81,2.35,8.05-.85,15.31-2.62,22.67-4.64,19.34-9.79,38.55-14.85,57.79-1.44,5.48-3.31,10.84-4.84,16.29-.59,2.11-.55,4.4-1.18,6.5-1.46,4.88-3.25,9.67-4.71,14.55-2.5,8.37-4.89,16.77-7.23,25.19-1.91,6.89-9.11,12.23-15.61,11.43-6.5-.8-12.34-7.7-12.3-15.77Z"/>
  <path class="cls-1" d="m414.71,777.28c5.03.19,11.7-.81,17.26,4.62,6.82,6.66,3.97,20.27-5.65,22.5-9.45,2.19-18.93,3.61-28.02-.81-6.28-3.06-8.86-9.31-7.55-15.97.92-4.7,8.31-10.08,14.32-10.33,2.69-.11,5.39-.02,9.64-.02Z"/>
  <path class="cls-1" d="m414.95,486.43c39.57,1.89,74.16,31.49,74.15,75.9,0,41.02-31.81,74.76-73.87,75.91-44.38,1.21-75.05-34.79-77.57-69.66-3.46-47.81,34.86-82.97,77.29-82.14Zm-48.54,75.4c-2.59,25.42,24.93,47.56,45.66,47.34,25.62-.28,47.78-19.75,47.86-46.19.08-28.86-20.91-47.24-47.24-47.52-26.17-.27-47.54,23.48-46.28,46.37Z"/>
</svg>