<?xml version="1.0" encoding="UTF-8"?>
<svg id="Warstwa_1" data-name="Warstwa 1" xmlns="http://www.w3.org/2000/svg" viewBox="0 0 1000 1000">
  <defs>
    <style>
      .cls-1 {
        fill: #293a59;
      }
    </style>
  </defs>
  <path class="cls-1" d="m961.02,487.08c-.64-.5-1.78-.96-1.82-1.51-.2-2.53-.09-5.09-1.01-7.82-.45,2.63-1.61,5.36-1.23,7.86,2.15,14.01-2.39,26.87-6.96,39.54-4.11,11.4-8.37,23.04-14.66,33.28-8.49,13.81-17.84,27.26-30.2,38.26-5.54,4.93-9.8,11.37-15.57,15.94-6.51,5.15-13.95,9.16-21.19,13.32-15.9,9.14-32.86,16-50.41,21.06-8.5,2.45-17.62,3.55-26.49,3.79-27.39.75-54.79.81-82.19,1.11-5.98.06-11.95,0-18.8,0,1.69,25.17-1.31,48.78-19.49,68.14-17,18.1-37.76,29.28-60.89,36.55-.23-.37-.46-.74-.69-1.11-.3.8-.4,2.09-.93,2.31-5.66,2.3-11.27,4.93-17.15,6.46-5.14,1.34-10.66,1.1-15.91,2.09-6.07,1.14-11.97,3.41-18.07,4.23-10.07,1.36-20.26,1.88-30.38,2.88-4.17.41-8.32,1.15-12.56,1.75,0,20.49-.04,40.39.1,60.29,0,1.22,1.21,2.79,2.3,3.58,4.9,3.53,10.34,6.42,14.82,10.4,2.6,2.31,3.54,6.4,5.66,9.38.95,1.34,2.95,2.74,4.48,2.74,52.97.07,105.95-.08,158.92.03,4.58,0,9.5.8,13.66,2.61,5.03,2.18,8.32,10.4,7.1,14.67-1.79,6.24-8.91,11.51-15.81,11.52-40.07.06-80.14.08-120.21.11-12.31,0-24.63-.33-36.91.21-4.28.19-9.55-2.2-12.97,2.76-.3.43-.93.76-1,1.2-1.38,8.62-8.47,11.29-14.6,15.82-6.44,4.76-13.33,5.49-20.29,6.76-3.37.62-7.38-.49-10.72-1.78-11.36-4.41-21.12-10.79-26.09-22.76-.51-1.22-3.25-2.14-4.96-2.14-50.87-.1-101.75-.01-152.62-.11-6.59-.01-13.35,1.23-19.65-2.51-4.1-2.44-7.82-9.15-7.12-14.7.56-4.51,5.91-10.08,10.49-10.65,4.11-.51,8.25-1.05,12.37-1.05,51.77-.02,103.55.04,155.32.15,3.29,0,4.67-.54,6.19-4.26,1.91-4.66,6.21-8.58,10.14-12.09,3.03-2.7,7.12-4.2,10.64-6.4.85-.53,1.85-1.68,1.85-2.55.1-20.52.08-41.05.08-61.64-8.18-.8-15.97-1.48-23.74-2.35-16.35-1.83-32.91-2.41-48.66-7.98-13.33-4.72-26.91-8.82-40.02-14.09-7.4-2.97-14.3-7.41-21.03-11.79-7.37-4.8-13.88-10.64-20.44-16.63-10.52-9.61-17.2-20.86-20.39-33.92-2.29-9.4-1.6-19.53-2.19-29.34-.12-2.07-.02-4.16-.02-6.54-1.36-.09-2.5-.23-3.64-.23-29.56-.02-59.13.16-88.68-.18-7.59-.09-15.18-1.67-22.74-2.82-20.46-3.1-39.56-10.45-57.26-20.79-12.72-7.43-25.35-15.64-36.24-25.46-22.19-20.03-38.49-44.48-49.14-72.63-6.22-16.43-9.74-33.33-11.59-50.75-2.3-21.63.2-42.66,6.1-63.48,6.53-23.05,15.88-44.85,30.72-63.67,29.64-37.6,67.62-62.55,115.17-71.05,14.99-2.68,30.46-2.76,45.73-3.69,3.71-.22,5.39-1.17,6.42-4.94,4.14-15.14,10.71-29.24,18.37-42.96,16.35-29.3,41.1-49.21,70.37-64.2,15.84-8.11,32.77-13.39,50.3-15.57,11.99-1.49,24.32-.61,36.47-.21,7.01.23,13.97,1.83,20.99,2.38,1.71.14,4.23-.91,5.24-2.25,14.58-19.44,33.91-33.14,54.65-44.95,17.22-9.8,36.05-15.62,55.46-19.05,13.96-2.47,28.12-4.34,42.4-1.98,13.1,2.16,26.53,3.03,39.25,6.54,34.21,9.43,63.74,27.22,87.25,53.99,8.88,10.11,17.26,20.98,23.96,32.6,6.09,10.56,9.77,22.54,14.17,34.03,2.52,6.57,4.73,13.32,6.35,20.17,1.23,5.2,1.53,10.66,1.83,16.02.48,8.63.77,17.28.84,25.93.02,3.32,1.09,4.16,4.39,4.46,16.86,1.54,33.83,2.57,49.96,8.56,5.71,2.12,11.84,3.24,17.33,5.79,8.51,3.94,16.86,8.36,24.88,13.23,9.27,5.64,18.75,11.23,26.95,18.24,9.14,7.8,17.89,16.45,25.12,26,14.74,19.47,26.91,40.48,32.52,64.71,2.37,10.23,5.75,20.26,4.57,31.01-.2,1.83.16,3.73.28,5.91,1.25-1.68,2.2-2.98,3.16-4.28v40.52Zm-651.88,135.71c0-1.68,0-2.41,0-3.14-.01-61.53.06-123.06-.1-184.59-.03-13.45,2.8-25.85,10.15-37.25,5.83-9.04,13.07-16.77,21.57-23.14,13.42-10.06,27.54-18.93,43.82-24,9.02-2.81,17.49-7.5,26.6-9.85,5.37-1.38,11.1-.6,16.78-2.87,5.83-2.33,12.65-2.41,19.09-2.94,16.69-1.39,33.4-2.87,50.13-3.57,10.42-.44,20.9.3,31.33.81,7.53.37,15.15.63,22.53,2,13.39,2.5,26.71,5.5,39.93,8.82,23.61,5.92,45.9,15.06,65.35,29.94,7.24,5.53,13.68,12.25,19.8,19.05,4.04,4.49,8.44,9.69,9.85,15.29,2.66,10.55,4.47,21.61,4.55,32.47.42,58.97.21,117.94.22,176.92,0,1.9,0,3.79,0,5.69,1.44.17,2.18.34,2.91.34,30.39-.18,60.78-.05,91.16-.77,9.72-.23,19.44-2.48,29.06-4.31,4.34-.82,8.46-2.82,12.66-4.34,20.94-7.59,39.45-19.5,55.54-34.51,9.71-9.06,17.22-20.53,25.44-31.13,2.93-3.78,5.43-8.03,7.39-12.4,2.93-6.53,5.26-13.34,7.77-20.05,4.8-12.84,8.06-26.09,8.67-39.76.41-9.37-.21-18.83-.95-28.2-1.27-16.19-4.84-31.91-11.42-46.81-6.1-13.81-14.61-25.95-24.35-37.59-10.5-12.54-23.03-22.35-36.27-31.39-6.7-4.57-14.32-7.82-21.62-11.46-13.34-6.67-27.66-10.37-42.34-12.04-11.94-1.36-24.03-1.35-36.06-1.88-10.09-.44-16.18-6.61-16.03-16.72.08-5.64.82-11.28.8-16.92-.02-6.85-.45-13.7-.85-20.55-.78-13.44-3.38-26.58-8.15-39.12-5.68-14.97-12.46-29.44-23.93-41.12-8.24-8.39-15.93-17.43-24.82-25.06-8.88-7.61-18.4-14.6-29.92-18.38-6.62-2.17-12.58-6.35-19.2-8.48-19.54-6.26-39.58-9.81-60.16-7.17-11.42,1.47-22.98,2.98-33.98,6.17-18.54,5.38-35.41,14.33-50.58,26.61-11.01,8.92-21.78,17.9-30.05,29.54-4.92,6.93-16.54,9.66-24.7,7.23-7.93-2.35-16.22-4.11-24.44-4.62-8.04-.5-16.23.62-24.29,1.54-8.48.96-17.15,1.65-25.26,4.08-7.89,2.37-15.62,6.06-22.58,10.49-10.74,6.84-21.56,13.92-30.86,22.51-10.42,9.61-19.89,20.5-25.6,33.91-3.6,8.46-7.39,16.86-10.49,25.51-2.35,6.55-3.62,13.49-5.59,20.19-2.08,7.08-9.92,11.23-17.57,10.45-5.94-.6-12-.32-17.99-.05-8.46.39-16.96.76-25.35,1.85-7.21.94-14.35,2.67-21.42,4.43-6.22,1.55-12.61,2.97-18.4,5.61-8.25,3.78-16.33,8.15-23.91,13.14-8.85,5.81-17.83,11.78-25.42,19.07-11.2,10.75-22.42,21.74-29.1,36.29-2.91,6.33-7.44,12.02-9.64,18.53-8.34,24.68-13.42,49.93-10.09,76.21,1.93,15.19,4.48,30.07,10.93,44.32,7.92,17.51,18.46,33.02,31.6,46.77,30.26,31.65,67.14,49.16,111.21,50.09,25.18.53,50.37.23,75.55.3,3.56,0,7.12,0,11.15,0Zm166.45-261.68c-.02-.19-.04-.37-.07-.56-8.04,1.05-16.08,2.11-24.13,3.14-25.06,3.2-49.29,9.52-71.93,20.84-13.55,6.78-26.31,14.92-35.02,28-6.74,10.11-7.92,20.15-1.63,31.11,8.36,14.56,21.39,23.78,35.86,30.5,23.33,10.83,47.79,18.41,73.63,21.2,17.77,1.92,35.38,4.26,53.39,3.68,17.4-.56,34.62-1.76,51.79-4.59,25.02-4.13,48.63-12.19,70.66-24.64,11.42-6.45,22.05-14.13,28.6-25.98,5.65-10.23,5.42-20.52-.92-30.46-6.43-10.1-15.64-17.2-25.67-23.34-21.14-12.93-44.66-19.42-68.59-24.26-23.18-4.69-46.79-5.63-70.41-5.58-5.19.01-10.38.61-15.57.94Zm185.12,122.81c-2.7,1.43-4.8,2.19-6.49,3.49-4.94,3.77-9.49,7.87-15.58,10.16-7.43,2.79-14.25,7.2-21.65,10.1-7.87,3.08-16.06,5.37-24.2,7.7-7.79,2.23-15.65,4.3-23.56,6.04-22.56,4.95-45.54,6.37-68.53,6.95-11.71.3-23.48-.78-35.19-1.73-8.49-.68-16.97-1.89-25.37-3.38-5.21-.93-10.2-3.06-15.39-4.2-3.46-.76-7.16-.4-10.64-1.1-17.02-3.47-32.48-11.14-47.95-18.58-8.23-3.96-15.87-9.14-23.8-13.72-.95-.55-2.7-1.36-3.04-1.02-.81.81-1.37,2.25-1.36,3.42.06,4.62.56,9.23.58,13.85.07,15.3-.07,30.61.05,45.91.03,4.12.06,8.44,1.25,12.32,4.05,13.2,13.92,21.78,24.83,29.21,14.15,9.63,29.66,16.63,46.14,21.02,12.68,3.38,25.61,6.17,38.6,7.96,16.36,2.25,32.87,3.54,49.36,4.6,7.85.5,15.8-.39,23.7-.83,8.44-.47,16.97-.53,25.28-1.9,17.77-2.93,35.4-6.46,52.26-13.27,15.86-6.4,31.34-13.33,44.47-24.57,10.84-9.28,17.3-20.5,17.03-35.34-.31-16.79.16-33.59.15-50.38,0-3.89-.58-7.78-.97-12.71Zm.78,123.51c-1.31.62-2.65,1.1-3.82,1.84-10.4,6.56-20.22,14.01-31.7,18.84-20.78,8.73-42.15,15.49-64.39,19-14.46,2.28-29.1,4.07-43.71,4.55-17.93.59-35.93-.07-53.87-.87-8.61-.38-17.24-1.94-25.72-3.63-9.88-1.98-19.96-2.86-29.49-6.89-12.64-5.35-26.03-8.97-38.49-14.67-9.89-4.52-18.85-11.08-28.27-16.65-1.04-.62-2.42-.67-3.64-.99-.16,1-.47,2.01-.44,3.01.17,6.97.54,13.93.61,20.89.17,15.75.14,31.5.4,47.25.04,2.37.96,4.83,1.9,7.07,4.94,11.76,14.14,20,24.38,26.63,16.08,10.41,33.55,18.53,52.29,22.56,19.89,4.28,40.08,7.49,60.29,9.89,11.72,1.39,23.76.64,35.62.2,11.24-.42,22.48-1.41,33.67-2.65,25.09-2.78,49.08-9.62,71.57-21.14,6.98-3.58,13.29-8.44,20.01-12.56,9.86-6.06,17.65-14.04,20.57-25.36,1.74-6.75,2.03-13.99,2.14-21.02.28-18.26.09-36.54.09-55.3Zm-173.25,268.73c.03,5.4,5.28,11.71,9.66,11.61,8.23-.18,13.89-5.05,13.75-11.82-.13-6.42-5.47-11.7-11.73-11.6-6.75.11-11.71,5.12-11.68,11.81Z"/>
</svg>