<?xml version="1.0" encoding="UTF-8"?>
<svg id="Warstwa_1" data-name="Warstwa 1" xmlns="http://www.w3.org/2000/svg" viewBox="0 0 1000 1000">
  <defs>
    <style>
      .cls-1 {
        fill: #293a59;
      }
    </style>
  </defs>
  <path class="cls-1" d="m84.98,173.8c2.38.81,4-.45,3.74-4.42-.54-8.02,3.77-14.31,6.84-20.98,1.59-3.47,4.53-6.31,6.81-9.47,3.24-4.48,6.01-9.38,9.74-13.4,8.74-9.43,19.75-15.52,32.06-18.82,6.13-1.64,12.65-2.5,19-2.5,204.5-.13,409-.17,613.49.02,17.93.02,34.05,6.01,47.82,18.24,10.32,9.16,18.68,19.66,23.57,32.39,3.3,8.6,6.46,17.92,6.6,26.97.86,55.04.94,110.09,1.08,165.14.15,62.68.21,125.35-.05,188.03-.03,7.05,5.19,9.78,8.21,14.43,3.6,5.55,6.63,11.49,9.71,17.37,1.03,1.97,2.31,4.42,1.98,6.4-1.89,11.13-4.36,22.18-13.9,29.73-2.1,1.66-1.78,2.88-.85,5.04,3.37,7.83,6.45,15.78,9.57,23.71,1.23,3.13,3.21,4.28,6.71,4.2,15.97-.39,27.69,6.9,34.22,21.27,2.45,5.39,3.04,11.84,3.47,17.87.57,8.06-.03,16.2.17,24.3.55,22.38-20.63,39.87-38.75,38.54-3.87-.28-4.99,1.34-6.18,4.89-2.52,7.46-6.14,14.54-9.04,21.89-.5,1.26-.16,3.38.63,4.51,2.6,3.72,5.84,7.01,8.39,10.77,7.28,10.77,5.93,29.39-2.53,38.95-8.9,10.06-18.26,19.9-28.5,28.55-13.58,11.46-30.4,11.03-43.97-1.04-6.29-5.59-11.05-5.93-17.93-1.92-5.26,3.07-11.39,4.68-17.2,6.74-2.18.77-3.2,1.74-3.03,4.23.54,7.77-.6,15.39-5.08,21.83-7.45,10.73-17.59,17.3-31.05,17.89-3.32.15-6.63.75-9.95.75-14.44-.01-29.2.67-41.61-8.47-3.83-2.82-6.69-7.27-9.28-11.42-4.48-7.18-6.44-15.1-4.7-23.46-7.44-3.05-14.76-5.97-22-9.08-1.41-.6-2.45-2.59-3.79-2.73-2.42-.25-4.72-1.21-7.29,1.58-7.41,8.02-16.66,13.2-27.96,13.01-7.24-.12-14.49-2.29-19.66-7.06-10.77-9.93-21.77-19.97-30.63-31.53-11.4-14.88-7.68-33.15,5.69-45.92,2.55-2.43,2.69-4.49,1.43-7.43-3.32-7.74-6.41-15.57-9.73-23.31-.39-.9-1.69-2-2.57-2-22.61-.06-45.22.06-67.83.04-22.69-.02-45.38-.11-68.07-.26-7.1-.05-13.63-5.21-15.61-12-2.04-7.02.44-14.57,6.72-18.19,2.61-1.5,6.05-2.16,9.13-2.19,25.93-.25,51.86-.26,77.79-.34,5.39-.02,10.77,0,16.39,0,0-3.53-.03-6.71,0-9.88.11-8.91-.16-17.85.46-26.73,1.11-15.87,15.79-32.4,34.1-32.78,8.11-.17,8.32,1.39,11.38-8.69,1.81-5.98,5.03-11.55,7.7-17.26,1.24-2.67,1.23-4.38-1.22-6.95-14.92-15.63-17.6-34.96-2.37-51.99,7.19-8.04,15.04-15.52,22.95-22.87,15.08-14.01,37.4-12.41,52.16,2.87.92.95,3.24,1.52,4.45,1.06,8.46-3.26,16.83-6.75,25.11-10.45,1.07-.48,1.95-2.56,1.99-3.93.31-10.56,3.33-20.05,10.63-27.88,6.9-7.4,15.52-11.54,25.6-11.68,11.84-.17,23.69.1,35.52.61,8.37.36,15.09,5.1,20.55,10.76,7.1,7.36,10.81,16.64,10.71,27.08-.03,2.9,1.1,4.1,3.81,5.17,8.27,3.28,16.28,7.21,24.57,10.44,1.27.5,3.87-.9,5.13-2.16,5.64-5.65,12.22-9.6,19.98-11.28,4.13-.9,8.43-.99,13.01-1.48-.29-3.08-.82-6.08-.81-9.07.17-49.52.42-99.05.63-148.57.03-6.59-.01-6.57-6.46-6.57-226.63.01-453.26.01-679.89.07-6.29,0-12.58.63-19.23.99-.06,1-.19,2.16-.19,3.31-.01,98.2-.34,196.4.26,294.59.12,20.46,8.95,37.93,27.69,48.71,6.32,3.63,13.11,4.91,20.58,4.55,11.99-.57,24.03-.07,36.06-.04,11.89.03,23.77-.09,35.66.11,8.02.13,16.14.05,24.01,1.31,4.07.66,7.71,4.04,11.4,6.11-.28,4.93.03,9.29-.87,13.39-1.55,7-7.68,11.8-14.68,11.82-34.03.09-68.1.93-102.09-.33-17.92-.66-33.39-9.74-45.26-23.49-6.1-7.07-12.49-14.44-16.26-22.79-3.18-7.06-6.94-14.77-5.76-23.3.19-1.35-.42-2.81-.76-4.78-1.02,1.45-1.71,2.43-2.4,3.41,0-164.26,0-328.51,0-492.77Zm384.57-37.14v.02c-77.53,0-155.06-.05-232.59.03-25.9.03-51.81.24-77.7.72-8.27.15-16,2.56-22.06,8.85-12.75,13.26-20.02,28.61-19.89,47.44.27,38.9.08,77.8.09,116.7,0,1.49.39,3.09-.03,4.43-1.32,4.15.46,4.94,4.22,4.95,230.92.19,461.85.45,692.77.7,8.64,0,8.93-.28,8.88-8.91-.24-39.53-.51-79.07-.71-118.6-.07-12.78-2.63-24.87-9.9-35.58-5.43-8.01-12.07-15.21-21.53-17.87-7.32-2.06-15.25-2.74-22.9-2.76-99.54-.17-199.09-.11-298.63-.11Zm60.42,548.85s-.03,0-.05,0c0,4.59.09,9.18-.03,13.77-.07,2.68.65,4.45,3.63,4.68,5.84.45,11.66,1.21,17.51,1.39,7.61.23,16.05,4.58,17.28,12.75.79,5.26,2.55,10.51,4.7,15.41,4.1,9.34,8.62,18.51,13.29,27.58,4.5,8.75,3.25,15.8-3.33,22.17-3.97,3.85-7.82,7.83-11.77,11.71-1.87,1.84-2.11,3.44-.08,5.44,6.82,6.73,13.46,13.64,20.3,20.35,2.44,2.39,5.05,2.02,7.42-.45,3.84-3.99,7.57-8.09,11.64-11.83,5.52-5.08,11.87-6.71,18.93-3.21,2.8,1.39,5.39,3.27,8.27,4.42,11.31,4.54,22.56,9.32,34.11,13.16,11.25,3.74,15.87,8.07,15.38,20.14-.16,4.04-.33,8.13.07,12.14.33,3.23.12,7.48,5.18,7.54,8.64.1,17.29.12,25.93-.01,3.92-.06,6.52-1.52,6.16-6.31-.37-4.83-.1-9.72-.08-14.58.04-7.84,4.74-14.8,12.14-17.15,15.51-4.95,30.54-10.89,44.71-19,7.44-4.25,14.92-2.83,21.04,3.12,3.97,3.86,7.93,7.72,11.84,11.64,2.43,2.43,4.58,2.16,6.92-.2,5.6-5.64,11.36-11.12,16.94-16.77,5.43-5.49,5.3-6.62.05-12.23-4.41-4.71-9.26-9.19-12.7-14.55-1.76-2.74-1.99-7.56-.91-10.77,2.06-6.18,5.35-11.99,8.48-17.77,5.94-10.99,6.99-23.85,14.11-34.58,3.46-5.22,7.3-7.42,12.66-7.94,4.82-.46,9.75.26,14.56-.24,2.57-.27,7.09-1.9,7.15-3.09.51-10.53.33-21.1-.01-31.64-.03-.9-2.63-2.39-4.1-2.46-5.1-.25-10.24.21-15.35,0-7.62-.31-13.78-3.33-16.82-10.78-1.48-3.63-2.18-7.58-3.73-11.18-5.32-12.4-10.77-24.74-16.35-37.02-2.44-5.37-2.24-13.54,1.03-16.91,4.11-4.24,8.7-8.07,12.43-12.61,4.22-5.13,5.37-4.09.57-9.44-5.85-6.52-12.3-12.51-18.43-18.78-1.87-1.91-3.73-2.06-5.62-.26-4.65,4.41-9.3,8.83-13.84,13.36-4.47,4.46-12.75,6.5-19.4,2.53-5.25-3.13-10.77-5.94-16.44-8.19-9.72-3.84-19.73-6.95-29.48-10.72-6.19-2.39-10.56-6.93-11.35-13.74-.72-6.23-.86-12.55-.82-18.82.02-3.18-1.45-4.56-4.11-4.62-9.43-.21-18.86-.16-28.29-.24-3.1-.03-4.28,1.56-4.27,4.53.02,5.8.15,11.62-.2,17.41-.53,8.65-3.53,13.22-10.65,15.39-15.74,4.8-30.71,11.22-45.34,18.75-9.81,5.05-14.64,3.38-22.28-3.87-3.53-3.34-6.96-6.79-10.35-10.27-2.57-2.63-5.03-2.76-7.63-.08-6.3,6.49-12.63,12.96-18.94,19.44-2.03,2.08-2.82,3.95-.07,6.34,3.25,2.82,6.12,6.09,9.15,9.16,5.82,5.9,9.92,12.51,6.57,21.06-2.16,5.52-5.49,10.58-7.75,16.07-4.06,9.86-8.17,19.75-11.37,29.91-1.93,6.13-4.98,10.86-11.15,11.9-7.46,1.25-15.15,1.03-22.7,1.85-1.56.17-4.04,2-4.18,3.27-.51,4.59-.2,9.27-.2,13.91Z"/>
  <path class="cls-1" d="m84.98,668.2c.25.14.5.27.75.41-.25.14-.5.27-.75.41,0-.27,0-.54,0-.81Z"/>
  <path class="cls-1" d="m240.61,457.4c6.76.15,12.04,3.02,14.83,9.2,2.87,6.35,1.66,12.51-2.82,17.8-4.61,5.45-9.51,10.64-14.17,16.04-5.66,6.55-11.16,13.24-16.84,19.77-1.65,1.89-3.59,3.57-5.58,5.09-2.86,2.19-2.52,4.34-.35,6.68,6.44,6.95,13.02,13.79,19.31,20.88,6.53,7.36,12.99,14.81,19.09,22.52,4.9,6.2,3.77,16.08-2.49,21.11-7.38,5.93-13.79,6.42-20.96-.16-7.61-6.99-14.45-14.86-21.36-22.58-9.67-10.8-19.46-21.53-28.45-32.9-3.31-4.19-4.51-10.16-3.2-15.82,1.85-8.05,7.37-13.98,12.61-19.9,12.17-13.77,24.61-27.29,36.92-40.93,3.62-4.01,7.72-6.99,13.47-6.81Z"/>
  <path class="cls-1" d="m486.1,528.97c.69,6.44-1.87,11.56-5.95,16.09-13.81,15.33-27.62,30.65-41.45,45.95-1.81,2-3.6,4.05-5.64,5.8-6.31,5.4-14.31,5.21-20.65-.33-6.18-5.4-8.02-13.74-3.03-20.1,8.8-11.22,18.38-21.84,27.71-32.64,3.62-4.19,7.4-8.24,11.2-12.26,1.59-1.68,1.72-2.96.08-4.79-12.19-13.63-24.49-27.17-36.31-41.12-3.92-4.63-7-10.24-4.72-16.97,3.49-10.33,17.68-16.15,27.51-5.93,9.03,9.37,17.54,19.24,26.27,28.9,6.06,6.7,12.12,13.39,18.13,20.13,4.41,4.94,7.72,10.36,6.84,17.27Z"/>
  <path class="cls-1" d="m348.47,445.31c11.79-.02,18.21,9.3,15.2,22.01-5.94,25.06-11.76,50.15-17.81,75.19-3.89,16.12-8.09,32.17-12.18,48.24-1,3.93-2.04,7.86-3.15,11.76-1.49,5.22-5.72,8.22-11.05,8.44-1.42.06-2.72,1.78-4.19,2.01-8.24,1.29-17.74-10.97-15.28-20.3,4.36-16.55,7.9-33.32,11.78-50,4.04-17.39,8.01-34.79,12.12-52.16,2.65-11.19,5.23-22.41,8.4-33.46,1.96-6.81,6.05-12.15,16.16-11.74Z"/>
  <path class="cls-1" d="m329.98,737.9c-7.73.16-16.09-8.3-16.44-16.65-.33-7.84,7.38-15.22,16.03-15.75,11.01-.67,17.3,8.88,17.06,16.19-.32,9.6-6.77,15.21-16.65,16.21Z"/>
  <path class="cls-1" d="m643.92,284.03c-24.84,0-49.7.7-74.5-.25-16.03-.61-30.13-7.53-40.22-20.51-7.61-9.8-12.93-20.94-12.96-33.65-.04-21.89,14.38-44.26,35.91-50.96,6.25-1.95,12.64-3.75,19.09-4.65,5.45-.76,11.1-.09,16.66-.08,36.59,0,73.18-.18,109.77.12,10.78.09,21.85.25,32.27,2.65,17.72,4.08,30.21,15.57,36.78,32.61,8.97,23.27,1.58,48.55-18.33,63.3-10.13,7.5-21.56,11.43-34.41,11.32-23.36-.21-46.72-.06-70.07-.06,0,.06,0,.12,0,.18Zm-1.88-77.08c-7.97,0-15.94-.09-23.91.02-16.97.24-33.93.52-50.89.92-6.64.16-11.82,4.1-15.08,9.06-4.15,6.32-4.91,13.8-.96,20.93,3.05,5.5,6.2,11.08,13.37,11.88,5.32.59,10.68,1.19,16.02,1.2,38.09.12,76.18.1,114.27.12,4.19,0,8.41.29,12.55-.13,6.21-.63,12.63-.96,18.47-2.89,8.13-2.7,12.49-12.12,11.61-22.2-.69-7.92-7.24-15.58-15.25-17.12-5.18-.99-10.5-1.66-15.77-1.71-21.47-.19-42.95-.08-64.43-.08Z"/>
  <path class="cls-1" d="m182.14,228.62c-.52-27.38,23.27-54.03,54.02-53.95,30.3.08,56.03,23.69,54.64,56.79-1.22,28.86-24.61,52.51-55.08,52.26-28.18-.23-53.95-24.25-53.58-55.09Zm54.24-20.77c-12.21.03-21.55,9.38-21.79,21.24-.21,9.87,9.86,22.55,22.39,21.62,12.61-.94,21.01-9.04,21.17-21.77.15-11.96-9.11-21.8-21.77-21.09Z"/>
  <path class="cls-1" d="m432.67,229.26c0,28.87-25.25,56.52-53.01,55.24-28.39-1.31-55.58-21.64-55.43-56.7.12-28.56,24.36-53.25,54.27-53.15,30.73.1,55.25,24.93,54.17,54.61Zm-54.13-21.42c-12.51-1.52-22.11,11.95-22.05,21.26.06,10.79,10.68,21.69,21.27,21.63,13.23-.07,22.2-9.68,22.55-20.95.36-11.7-9.57-23.14-21.77-21.95Z"/>
  <path class="cls-1" d="m705.33,786.87c-25.37-1.27-47.98-10.42-67.25-27.93-18.85-17.13-29.88-39.3-31.97-63.63-2.5-29.04,6.98-55.98,27.69-77.74,10.51-11.04,22.88-20.39,37.25-24.82,34.55-10.64,67.59-7.16,96.94,15.81,18.54,14.52,30.89,33.62,35.6,56.46,6.61,32.03-.99,61.4-22.34,86.37-19.61,22.93-45.16,34.22-75.91,35.49Zm-66.04-97.6c-.41,33.45,28.28,65.02,71.19,64.38,15.76-.23,30.24-7.74,41.94-19.09,15.61-15.12,21.69-33.81,19.93-55.13-1.34-16.19-8.3-30.09-20.06-41.04-18.23-16.98-40.04-21.71-64.12-16.24-10.42,2.37-19.4,7.99-27.02,15.11-13.8,12.89-22.04,28.71-21.87,52.01Z"/>
</svg>