<?xml version="1.0" encoding="UTF-8"?>
<svg id="Warstwa_1" data-name="Warstwa 1" xmlns="http://www.w3.org/2000/svg" viewBox="0 0 1000 1000">
  <defs>
    <style>
      .cls-1 {
        fill: #293a59;
      }
    </style>
  </defs>
  <path class="cls-1" d="m961.07,727.78c-.71.55-1.85.96-2.07,1.66-3.04,9.91-10.57,14.71-19.77,17.7-5.95,1.93-11.95,3.72-17.77,5.98-1.6.62-3.14,2.47-3.87,4.12-5.61,12.67-11.05,25.42-16.41,38.19-.42,1.01-.17,2.61.34,3.65,4.14,8.45,8.93,16.61,12.48,25.29,2.96,7.25,1.86,14.91-3.46,20.88-8.71,9.77-17.43,19.66-27.15,28.36-9.68,8.67-17.67,11.67-31.41,4.59-5.72-2.95-11.38-6.07-17.33-8.5-2.28-.93-5.54-.91-7.87-.03-12.05,4.53-24.03,9.3-35.84,14.44-2.26.98-4.35,3.71-5.29,6.11-3.04,7.76-4.96,15.99-8.35,23.57-4.06,9.09-12.19,13.29-21.83,13.71-10.93.48-21.91-.03-32.86.27-15.38.42-24.15-9.18-27.48-20.7-1.86-6.43-3.97-12.8-6.29-19.07-.52-1.41-2.21-2.78-3.68-3.39-11.36-4.75-23.08-8.75-34.12-14.16-5.69-2.79-9.9-1.9-14.85.69-6.58,3.45-13.37,6.51-20.04,9.79-6.28,3.08-12.64,1.85-17.48-2.01-13.81-11.02-27.05-22.78-36.75-37.83-3.42-5.31-3.33-11.19-.68-16.85,3.6-7.68,7.66-15.16,11.04-22.94.96-2.2.96-5.44.1-7.71-4.76-12.54-9.84-24.96-15.05-37.32-.6-1.41-2.49-2.66-4.06-3.22-7.48-2.68-15.26-4.6-22.54-7.71-10.4-4.45-16.38-12.4-16.31-24.22.07-12.31-.34-24.63.12-36.93.39-10.46,9.53-19.86,18.62-22.22,7.26-1.89,14.39-4.27,21.48-6.73,1.24-.43,2.36-2.21,2.87-3.61,2.33-6.35,4.15-12.9,6.69-19.16,2.64-6.49,6.63-12.5,8.57-19.15.89-3.07-1.15-7.42-2.8-10.73-4.11-8.27-9.81-15.84-10.49-25.49-.5-7.04,2.41-12.9,7.1-17.73,8.26-8.5,16.88-16.65,25.29-25,8.92-8.85,20.6-9.59,31.28-4.4,5.96,2.9,11.48,6.77,17.55,9.37,2.38,1.02,6,.41,8.61-.6,12.01-4.65,23.78-9.9,35.8-14.53,4.87-1.88,3.43-6.3,4.87-9.51,3.51-7.84,5.89-16.28,10.2-23.62,4.98-8.48,13.98-10.44,23.34-10.42,9.15.03,18.34-.45,27.45.18,18.64,1.29,25.74,7.01,30.94,25.79,1.24,4.47,3.01,8.81,4.05,13.32,1.21,5.25,5.93,5.08,9.33,5.89,11.54,2.76,22.01,7.73,32.21,13.58,1.33.76,3.69.79,5.13.15,6.69-2.98,13.17-6.42,19.82-9.48,13.37-6.15,24.16-4.2,33.87,6.64,6.38,7.12,12.99,14.1,20.1,20.46,6.62,5.93,11.6,18.08,6.95,27.87-3.64,7.68-7.57,15.22-11.16,22.92-.7,1.5-1.12,3.7-.55,5.13,5.17,12.82,10.54,25.56,16.01,38.25.7,1.62,2.02,3.56,3.52,4.13,6.28,2.42,12.65,4.73,19.16,6.41,9.29,2.4,15.77,7.53,18.88,16.73.29.87,1.2,1.54,1.83,2.3v46.82Zm-417.72-7.79c8.57,2.92,17.11,5.3,25.19,8.74,6.63,2.83,11.9,7.69,14.08,15.05.53,1.8.85,3.68,1.5,5.43,2.38,6.39,4.67,12.82,7.35,19.08,2.51,5.85,4.78,12,8.44,17.11,3.3,4.61,3.94,9.96,2.96,14.14-1.76,7.48-5.84,14.43-9.1,21.53-1.32,2.88-4.42,5.74-4.15,8.34.27,2.55,3.75,4.8,5.89,7.11,4.26,4.6,8.46,9.28,12.95,13.64,1,.97,3.45,1.48,4.71.95,6.32-2.64,12.29-6.19,18.73-8.43,5.2-1.82,10.86-2.62,16.38-3.12,3.01-.27,6.43.45,9.2,1.73,7.18,3.3,13.97,7.47,21.18,10.71,7.96,3.58,16.34,6.24,24.29,9.86,3.19,1.45,7.02,3.79,8.31,6.72,3.48,7.91,5.99,16.28,8.44,24.6,1.82,6.16,3.78,7.41,10.02,6.65,4.89-.6,9.92.14,14.85-.25,3.4-.27,7.79.88,9.39-3.84,1.94-5.74,3.59-11.58,5.55-17.31,3.07-8.99,7.68-16.22,17.59-19.63,12.14-4.18,23.91-9.46,35.7-14.6,8.62-3.75,17.28-7.09,26.6-3.27,6.29,2.57,12.3,5.86,18.29,9.11,3.48,1.88,6.18,3.07,9.5-.7,3.81-4.33,8.44-7.94,12.74-11.84,3.65-3.31,8.23-6.22,3.75-12.15-1.49-1.97-2.56-4.31-3.58-6.58-1.72-3.82-2.76-8.04-4.97-11.54-4.06-6.43-4.17-12.78-1.28-19.51,5.59-12.99,12.05-25.7,16.44-39.09,3.67-11.2,9.91-18.43,20.99-21.81,5.88-1.79,11.77-3.59,17.52-5.74,1.42-.53,3.25-2.42,3.3-3.74.3-8.24.29-16.51,0-24.75-.05-1.48-1.59-3.63-2.97-4.21-5.45-2.28-11.03-4.32-16.71-5.95-11.1-3.19-17.68-10.5-21.65-21.15-4.62-12.37-10.12-24.4-15.06-36.66-2.22-5.52-5.66-11.05-2.99-17.32,3.64-8.58,7.46-17.08,11.5-25.48,1.44-2.99,1.49-5.18-.96-7.59-5.67-5.57-11.1-11.4-16.85-16.88-.9-.85-3.32-1.05-4.52-.47-6.6,3.19-12.94,6.92-19.56,10.08-7.15,3.41-14.36,4.27-22.01.63-9.92-4.72-20.15-8.8-30.29-13.05-4.47-1.87-9.01-3.62-13.6-5.18-10.1-3.44-14.09-12.38-18.22-20.81-2.3-4.7-2.57-10.35-4.46-15.3-.62-1.62-3.41-3.3-5.28-3.39-7.64-.35-15.3-.21-22.95.04-1.55.05-3.9,1-4.43,2.19-1.7,3.79-2.99,7.83-3.94,11.89-3.01,12.81-9.37,22.39-22.47,27.14-12.85,4.66-25.35,10.3-37.94,15.65-7.28,3.09-14.39,4.88-21.98.72-6.77-3.71-13.86-6.85-20.69-10.47-2.39-1.27-3.89-1.21-5.77.88-3.7,4.13-7.74,7.95-11.58,11.96q-7.98,8.33-2.56,18.5c.27.52.75.92,1.08,1.41,8.78,13.57,11.08,26.6.88,41.29-5.71,8.21-7.99,18.84-11.63,28.44-2.52,6.65-4.04,14.25-11.01,17.61-9.67,4.65-19.81,8.32-30.13,12.57v30.31Z"/>
  <path class="cls-1" d="m83.73,422.96c1.74-4.83,2.82-8.68,4.49-12.25,2.85-6.1,6.41-11.89,8.97-18.1.97-2.36.76-5.81-.19-8.27-4.67-12.1-9.56-24.12-14.89-35.93-1-2.22-4.11-3.95-6.63-4.93-6.31-2.46-12.9-4.16-19.25-6.52-11.8-4.38-16.96-13.49-17.17-25.61-.2-11.85-.16-23.71,0-35.56.12-9.22,8.33-18.99,17.24-21.64,6.61-1.97,13.23-4.13,19.51-6.95,6.06-2.71,7.11-9.46,9.76-14.73,4.3-8.52,8.26-17.24,11.85-26.08.92-2.28.69-5.66-.32-7.97-2.97-6.85-6.74-13.34-9.92-20.1-4.25-9.04-3.31-17.79,3.04-25.45,4.95-5.97,10.5-11.44,15.92-17.01,3.54-3.64,7.19-7.2,11.02-10.54,10.29-8.96,20.28-9.59,33.65-2.45,5.13,2.74,10.56,4.98,15.45,8.08,2.87,1.82,4.78.8,7.2-.29,9.44-4.24,18.91-8.39,28.41-12.49,1.3-.56,2.91-.41,4.23-.96,3.19-1.33,6.76-1.53,7.83-6.41,1.51-6.84,4.69-13.29,6.68-20.05,3.27-11.11,13.7-18.27,25.68-18.42,11.4-.14,22.81-.22,34.21-.05,12.03.18,20.99,7.57,23.41,18.15,1.58,6.95,4.39,13.61,6.46,20.46,1.87,6.16,7.84,5.23,12.08,7.12,8.89,3.96,18.22,7,26.91,11.33,4.42,2.2,7.84,2.56,12.08.25,6.3-3.44,12.68-6.8,19.27-9.61,8.96-3.82,17.98-2.69,24.93,3.87,11.18,10.56,22.03,21.59,31.81,33.42,2.87,3.48,2.54,10.43,2.04,15.63-.44,4.65-2.85,9.23-4.92,13.59-2.11,4.43-5.15,8.42-7.22,12.86-.85,1.82-.84,4.6-.1,6.5,4.91,12.71,9.97,25.36,15.39,37.86.8,1.84,3.56,3.22,5.71,4.02,7.82,2.91,16.01,4.94,23.59,8.33,9.27,4.14,13.38,12.31,13.63,22.22.25,10.2.11,20.41.05,30.61-.11,17.35-7.03,24.27-21.33,29.81-5.64,2.19-11.63,3.48-17.23,5.76-2.16.88-4.44,3.01-5.36,5.14-5.16,11.96-10,24.07-14.75,36.2-.61,1.55-.67,3.81,0,5.3,3.82,8.43,8.64,16.48,11.75,25.15,2.96,8.25,1.32,16.62-4.92,23.23-7.7,8.16-16.71,15.26-23.44,24.11-6.85,9.01-16.15,9.41-25.32,9.81-4.02.17-8.2-3.79-12.33-5.83-5.21-2.56-10.4-5.17-15.7-7.53-1.18-.52-3.14-.65-4.12-.01-12.1,7.9-25.76,11.99-39.24,16.56-1.13.38-2.12,1.95-2.64,3.19-1.91,4.57-3.69,9.19-5.33,13.86-1.25,3.55-2,7.28-3.34,10.8-3.64,9.59-12,13.3-21,14.25-10.46,1.11-21.13.15-31.69.58-8.03.33-15.28-1.37-21.27-6.71-4.24-3.78-7.12-8.31-7.78-14.46-.43-3.99-3.94-7.62-4.53-11.64-1.16-7.87-5.87-10.54-12.84-12.89-10.3-3.49-19.97-8.79-30.03-13.03-1.92-.81-4.74-.97-6.58-.15-6.34,2.8-12.45,6.14-18.63,9.31-9.68,4.96-19.61,6.29-28.06-1.55-10.74-9.96-20.96-20.55-30.63-31.55-3.14-3.57-3.87-9.28-5.56-13.65Zm304.5,20.82c1.36-.76,2.68-1.17,3.54-2.03,5.16-5.22,9.96-10.83,15.39-15.75,3.44-3.11,3.18-5.74,1.28-9.35-3.48-6.62-6.7-13.38-9.9-20.14-3.13-6.6-2.02-12.9.91-19.41,5.36-11.91,10.73-23.86,15.13-36.14,4.42-12.33,11.56-20.93,24.78-23.93,5.11-1.16,10.04-3.16,14.94-5.07,1.09-.42,2.38-2.06,2.4-3.17.2-8.55.2-17.11,0-25.65-.03-1.17-1.25-2.94-2.33-3.35-5.76-2.15-11.68-3.85-17.48-5.91-9.76-3.47-17.34-9.23-20.36-19.74-1.18-4.1-2.32-8.25-4-12.15-4-9.28-8.03-18.57-12.57-27.59-3.97-7.9-4.21-15.38,0-23.18,3.49-6.45,6.8-13,9.85-19.66.59-1.28.21-3.83-.74-4.85-5.4-5.83-11.13-11.35-16.71-17.01-2.1-2.13-4.03-2.71-6.96-1.01-5.56,3.22-11.39,5.99-17.17,8.81-7.86,3.83-15.52,5.04-24.13,1.02-12.71-5.93-25.88-10.89-38.98-15.96-9.75-3.77-16.92-9.73-20.07-20.06-1.89-6.19-4.12-12.28-6.52-18.29-.53-1.33-2.42-2.94-3.74-2.98-8.39-.28-16.8-.27-25.2-.04-1.23.03-3.03,1.51-3.51,2.74-2.03,5.18-3.95,10.43-5.36,15.8-3.28,12.43-11.2,19.41-23.37,23.4-12.24,4.02-23.9,9.82-35.81,14.84-7.37,3.11-14.79,4.47-22.35.67-6.92-3.47-13.76-7.1-20.78-10.34-1.29-.6-3.83-.3-4.84.62-6.18,5.67-12.2,11.54-17.98,17.62-1,1.06-1.35,3.82-.71,5.18,3.31,7.07,7.1,13.93,10.62,20.91,4.94,9.78,2.83,19.67-2.63,27.77-6.64,9.85-9.62,20.92-13.61,31.64-3.74,10.07-9.32,17.66-19.77,21.04-5.97,1.93-12.05,3.56-17.94,5.71-1.53.56-3.53,2.56-3.59,3.96-.34,8.39-.31,16.8-.03,25.2.05,1.53,1.53,3.84,2.89,4.36,6.53,2.5,13.23,4.58,19.91,6.68,8.09,2.54,13.6,7.67,16.73,15.57,5.18,13.07,9.46,26.65,16.07,38.96,5.96,11.09,5.49,20.75-.34,31.06-2.5,4.42-4.57,9.1-7.33,13.33-2.24,3.42-1.62,5.68,1.24,8.19,5.23,4.6,11.23,8.75,15.08,14.34,3.39,4.93,5.61,2.97,8.96,1.24,5.98-3.09,12.01-6.1,18.1-8.97,7.35-3.46,14.66-2.6,21.95.44,13.38,5.58,26.71,11.27,40.21,16.54,8.58,3.35,14.77,8.5,17.56,17.6,2.08,6.79,4.68,13.43,7.41,19.98.56,1.35,2.7,2.86,4.15,2.9,7.94.22,15.9.14,23.84-.19,1.42-.06,3.49-1.5,4.03-2.81,2.36-5.71,4.48-11.54,6.28-17.45,2.6-8.5,7.14-14.97,15.75-18.45,15.07-6.09,29.96-12.61,44.99-18.8,2.4-.99,5.08-1.47,7.68-1.76,9.37-1.04,16.84,4,24.65,7.94,3.41,1.72,6.85,3.39,10.44,5.17Z"/>
  <path class="cls-1" d="m406.79,671.81c-2.67-4.25-5.35-8.49-8-12.75-3.28-5.27-2.87-10.19,1.04-15.06,5.75-7.16,17.18-7.61,22.55-.13,8.8,12.27,17.13,24.89,25.47,37.49,5.14,7.75,3.24,17.52-4.29,22.43-13.44,8.77-26.8,17.72-40.73,25.65-6.12,3.49-12.47.32-16.27-5.8-3.35-5.41-2.62-11.78,2.21-16.52,2.31-2.27,5.05-4.1,7.69-6.21-9.92-3.99-19.86-7.49-29.38-11.89-39.03-18.03-65.53-47.97-81.79-87.36-1.48-3.6-2.72-7.5-3.02-11.34-.51-6.56,4.12-12.04,10.49-13.5,6.11-1.39,14.03,1.31,16.32,7.64,4.71,13.03,10.91,25.26,19.26,36.39,16.1,21.48,36.57,37.13,61.63,46.75,5.24,2.01,10.56,3.82,15.84,5.72.32-.51.65-1.01.97-1.52Z"/>
  <path class="cls-1" d="m593.85,327.98c3.04,5.66,6.43,11.05,8.9,16.83,2.03,4.74-.3,10.39-4.56,13.76-3.8,3-11.76,4.23-15.05,1.29-4.13-3.69-7.73-8.12-10.97-12.65-6.48-9.08-12.62-18.41-18.77-27.72-6.95-10.52-6.21-15.85,3.86-23.29,11.44-8.45,23.05-16.67,34.87-24.58,7.79-5.21,16.5-2.16,20.61,3.25,4.88,6.43,3.35,14.53-3.7,20.14-1.74,1.38-3.64,2.55-6.38,4.45,3.99,1.38,7.28,2.66,10.65,3.68,29.06,8.74,52.77,25.65,72.97,47.85,14.5,15.94,24.69,34.37,30.9,54.97,2.25,7.45-.83,13.62-7.62,16.35-7.02,2.82-14.08.52-17.51-6.25-4.18-8.26-7.26-17.12-11.94-25.06-15.87-26.97-39.07-45.63-67.76-57.61-5.36-2.24-11.07-3.65-16.63-5.37-.68-.21-1.49-.03-1.87-.03Z"/>
  <path class="cls-1" d="m743.14,802.52c-60.74-.1-102.49-45.18-103.55-96.59-1.13-54.73,44.32-100.46,98.63-99.57,53.35.87,95.98,41.51,97.58,97.7.78,27.2-10.27,50.58-28.77,69.62-18.51,19.05-42.21,28.19-63.89,28.84Zm63.2-97.71c.4-22.32-9.94-41.09-24.93-53.6-16.61-13.87-35.8-15.98-57-14.84-29.16,1.56-58.65,39.5-57.56,77.39,6.23,16.89,12.88,33.39,28.01,44.87,12.46,9.45,26.09,15.22,41.81,15.01,19.65-.26,36.77-7.14,50.51-21.34,12.75-13.18,18.92-29.2,19.16-47.48Z"/>
  <path class="cls-1" d="m360.87,295.76c-.73,39.52-25.19,76.71-63.22,91.15-12.53,4.76-25.2,8.02-38.59,7.6-4.96-.15-9.88-1.55-14.84-2.24-13.15-1.83-24.6-7.97-35.5-14.9-6.46-4.11-12.03-9.72-17.64-15.03-4.38-4.15-8.98-8.41-12.07-13.48-3.55-5.82-5.58-12.57-8.21-18.95-5.49-13.36-7.96-27.36-6.51-41.66,3.34-33.04,19.15-58.62,47.44-76.27,10.34-6.45,21.67-10.22,33.54-12.86,12.32-2.74,24.34-1.15,36.46.88,12.46,2.09,23.88,6.77,34.36,13.74,13.01,8.65,24.14,19.41,31.23,33.32,6.15,12.05,12.11,24.46,12.31,38.59.05,3.37.8,6.74,1.23,10.11Zm-98.8,69.16c37.47-.05,69.19-29.7,69.43-69.06.22-37.83-29.92-72.12-75.58-68.83-32.47,2.34-61.27,30.37-63.03,65.99-1.86,37.67,31.6,72.33,69.18,71.89Z"/>
</svg>