<?xml version="1.0" encoding="UTF-8"?>
<svg id="Warstwa_1" data-name="Warstwa 1" xmlns="http://www.w3.org/2000/svg" viewBox="0 0 1000 1000">
  <defs>
    <style>
      .cls-1 {
        fill: #283958;
      }
    </style>
  </defs>
  <path class="cls-1" d="m961,701.64c-.6-.36-1.19-.72-2.04-1.22-1.96,12.96-7.7,24.11-16.69,32.97-6.04,5.95-13.63,10.47-20.95,14.93-9.13,5.57-19.51,5.82-29.94,5.81-77.88-.04-155.75.06-233.63.11-4.1,0-8.2,0-13.32,0,1.14,3.12,1.78,5.13,2.61,7.05.7,1.62,1.8,3.07,2.41,4.71,2.98,8,6.05,15.98,8.71,24.09,1.73,5.28,2.5,10.87,4.26,16.14,1.69,5.04,4.16,9.82,6.16,14.77,1.32,3.27,2,6.88,3.8,9.83.99,1.61,3.7,3.03,5.65,3.05,16.05.21,32.11.05,48.16.06,5.65,0,10.71,1.8,14.25,6.33,3.28,4.19,3.85,9.15,1.64,13.98-2.78,6.1-8.22,8.45-14.53,8.49-24.93.14-49.86.12-74.79.11-87.32-.02-174.64-.06-261.97-.11-5.58,0-12.62-4.87-14.03-9.48-2.88-9.38,3.99-19.15,13.99-19.29,15.9-.22,31.81-.17,47.71,0,4.48.05,7.22-.81,8.83-5.78,5.51-17.01,11.58-33.84,17.55-50.7,2.65-7.5,5.57-14.9,8.6-22.96h-112.44c0,12.22.41,24.04-.13,35.82-.43,9.37-1.03,18.94-3.27,27.99-5.06,20.46-19.22,33.3-38.24,40.88-5.42,2.16-11.58,3.42-17.41,3.44-69.46.19-138.93.18-208.4-.21-5.51-.03-10.9-3.9-16.53-4.85-8.36-1.41-13.86-6.79-19.24-12.35-3.93-4.06-7.32-8.67-10.69-13.23-7.26-9.83-8.03-21.46-8.04-32.97-.12-138.5-.12-276.99-.03-415.49.02-26.49,16.32-48.03,39.94-56.88,7.6-2.85,16.3-3.47,24.54-3.72,17.96-.53,35.94-.16,54.12-.16.08-1.2.22-2.22.22-3.24.02-38.41.19-76.83-.03-115.24-.16-27.33,16.75-51.41,40.48-61.67,10.34-4.47,21.23-5.41,32.25-5.42,142.4-.06,284.8-.05,427.2-.05,78.93,0,157.85.05,236.78-.03,9.36,0,18.88.95,26.94,4.99,10.35,5.18,19.85,12.11,26.76,22.19,5.32,7.77,8.85,15.88,10.18,25.12.14.97,1.68,1.73,2.57,2.59v509.61Zm-28.81-104.96c0-1.16,0-2.34,0-3.53-.26-131.38-.51-262.75-.79-394.13-.03-12.06-12.03-27.81-23.72-30.28-7.45-1.57-15.18-2.6-22.78-2.6-216.61.13-433.23.4-649.84.76-7.11.01-14.22,1.18-21.34,1.71-12.78.94-25.98,18.59-26.06,30.47-.21,34.51-.21,69.02-.26,103.53,0,5.46.59,10.97.04,16.37-.31,3.04.21,3.66,2.99,3.67,37.91.24,75.82.52,113.73.89,3.52.03,7.18.32,10.51,1.34,19.18,5.85,34.03,17.34,41.54,36.12,3.26,8.15,4.57,17.57,4.62,26.42.38,63.47.21,126.93.18,190.4,0,3.84-.31,7.69-.58,11.53-.47,6.73.52,7.9,7.24,7.82,10.33-.12,20.66-.48,31-.48,177.64-.03,355.29-.02,533.5-.02Zm-864.35-4.42c0,69.18-.03,138.35.05,207.53,0,6.27.14,12.24,4.2,18.12,6.67,9.64,14.9,15.95,26.62,15.98,61.82.17,123.64.08,185.46,0,7.43-.01,15.07.51,22.23-1.02,10.76-2.3,19.65-8.42,22.45-19.76,1.99-8.05,3.08-16.53,3.09-24.82.2-103.84.14-207.68.11-311.51,0-30.91-.09-61.82-.26-92.73-.05-8.41-2.84-15.97-8.66-22.16-8.11-8.63-18.69-10.15-29.82-10.14-44.85.02-89.69-.08-134.54-.01-20.99.03-42.01-.3-62.96.75-15.36.77-27.95,14.93-27.96,30.46-.05,69.78-.02,139.55-.02,209.33Zm864.35,34.04H361.14c-.05.67-.12,1.12-.12,1.56.04,28.96.16,57.91.09,86.87-.03,10.2-.25,10.28,10.22,10.29,174.65.03,349.3,0,523.95.11,9.91,0,17.71-4.34,24.86-10.24,9.05-7.46,11.53-18.2,11.86-29.04.61-19.77.17-39.56.17-59.55Zm-456.68,207.7c2.99,0,5.04,0,7.09,0,47.55-.03,95.11-.07,142.66-.09,4.95,0,9.91.16,14.85-.04,1-.04,2.77-1.38,2.77-2.13.01-2.18-.32-4.52-1.18-6.52-1.95-4.54-4.64-8.78-6.4-13.38-2.76-7.17-4.96-14.55-7.47-21.82-3.78-10.93-7.49-21.9-11.57-32.72-.57-1.51-3.03-3.28-4.63-3.28-34.35-.11-68.71.01-103.06.12-1.77,0-3.53.28-5.38.43-9.17,26.3-18.25,52.34-27.69,79.42Z"/>
  <path class="cls-1" d="m559.99,206.77c8.9,2.36,17.97,4.24,26.68,7.2,12.67,4.31,20.34,14.84,28.47,24.64,3.46,4.17,4.77,9.02,5.69,14.3.98,5.58,6.24,5.73,10.7,6.67,5.28,1.11,10.8,1.81,15.71,3.89,18.66,7.92,28.45,23.09,32.8,42.24,2.68,11.8,4.92,23.71,7.62,35.51,3.63,15.83,7.57,31.58,11.26,47.39,2.52,10.83,5.61,21.61,7.05,32.59,1.72,13.11,6.32,25.43,8.86,38.29,2.09,10.62,5.68,20.97,7.33,31.64,1.9,12.3-.91,24.09-6.81,35.18-9.08,17.04-24.57,24.83-42.2,29.13-5.1,1.24-10.76.15-16.16.15-67.8-.02-135.6.09-203.41-.14-17.83-.06-32.76-7.39-44.01-21.32-7.13-8.83-12.49-18.94-12.84-30.39-.26-8.44,1.3-17.05,2.95-25.41,3.2-16.25,6.96-32.38,10.64-48.53,2.33-10.26,5.07-20.43,7.38-30.69,3.26-14.45,6.13-29,9.46-43.43,4.37-18.98,8.55-38.02,13.72-56.79,3.62-13.14,11.97-23.27,23.14-31.38,8.28-6.01,17.64-7.56,27.18-8.71,3.72-.45,5.27-1.18,6.62-5.17,5.14-15.18,13.71-27.91,28.14-36.16,10.51-6,21.54-9.4,33.63-9.3l.41-1.4Zm-.98,80.59s0,.07,0,.1c-21.76,0-43.51-.09-65.27.04-11.6.07-22.09,8.13-25.14,19.28-2.06,7.54-3.68,15.21-5.44,22.83-5.11,22.17-10.18,44.35-15.3,66.52-3.89,16.86-7.87,33.7-11.72,50.57-3.34,14.62-6.45,29.28-9.89,43.88-1.73,7.36-1.36,14.21,2.43,20.95,3.75,6.67,9.83,10.47,16.31,13.48,3.32,1.54,7.43,1.86,11.19,1.87,24.75.03,49.49-.22,74.24-.29,43.51-.11,87.02-.14,130.53-.23,4.03,0,8.72,1.01,11.96-.66,5.51-2.84,12.65-4.35,15.31-10.92,2.32-5.73,4.97-11.86,4.99-17.83.03-7.08-2.55-14.19-4.09-21.26-6.01-27.61-11.89-55.25-18.14-82.81-6.03-26.58-12.65-53.03-18.63-79.63-3.93-17.49-13.14-26.2-32.57-25.96-20.25.26-40.51.06-60.76.06Zm33.28-29.54c-5.89-12.01-15.27-18.99-27.94-20.61-16.8-2.15-28.87,5.65-37.72,20.61h65.66Z"/>
  <path class="cls-1" d="m199.01,398.21c-21.44,0-42.88-.09-64.31.04-11.21.06-20.32-13.77-12.88-22.94.71-.87,1.72-1.59,2.74-2.09.76-.37,2.24.04,2.57-.45,3.62-5.43,9.38-3.22,13.9-3.26,39.43-.35,78.86-.14,118.29-.26,4.05-.01,7.81-.51,11.65,1.73,4.68,2.74,8.67,6.08,9.23,11.47.53,5.16-1.54,9.15-6.73,12.26-4.4,2.63-8.49,3.53-13.27,3.52-20.39-.06-40.78-.03-61.16-.01Z"/>
  <path class="cls-1" d="m173.09,803.48c.71-2.45,1.1-5.52,2.43-8.1,3.38-6.55,9.58-8.2,16.32-8.13,6.53.07,13.06.75,19.6.77,10.27.02,16.46,9.41,13.3,19.22-2.98,9.27-10.78,8.86-17.59,9.43-7.49.63-15.12-.4-22.69-.72-5.08-.21-5.79-4.99-8.23-7.95-1.08-1.31-1.96-2.79-3.15-4.51Z"/>
  <path class="cls-1" d="m561.88,380.93c-24.6-2.14-41.89-11.28-54.6-28.53-8.36-11.34-12.75-24.18-12.67-38.4.04-6.29,5.21-12.61,10.66-12.99,10.54-.74,16.09,2.78,17.28,11.06,1.26,8.8,3.07,17.32,8.81,24.6,17.32,21.98,49.17,17.03,60.35-6.35,2.23-4.65,3.19-10.12,3.74-15.31.94-8.81,7-14.31,16.58-14.03,7.01.2,12.28,6.26,12.21,14.29-.21,26.89-16.45,49.39-39.8,59.25-8.03,3.39-16.89,4.85-22.57,6.41Z"/>
</svg>