<?xml version="1.0" encoding="UTF-8"?>
<svg id="Warstwa_1" data-name="Warstwa 1" xmlns="http://www.w3.org/2000/svg" viewBox="0 0 1000 1000">
  <defs>
    <style>
      .cls-1 {
        fill: #293a59;
      }
    </style>
  </defs>
  <path class="cls-1" d="m961.04,634.14c-.48.32-1.19.52-1.42.97-5.33,10.42-16.57,10.37-25.52,14.29-3.86,1.69-8.21,2.22-12.15,3.76-1.43.56-2.68,2.39-3.37,3.93-5.52,12.39-10.9,24.83-16.27,37.29-.35.8-.54,2.02-.18,2.72,5.44,10.76,11.51,21.24,16.14,32.33,1.21,2.88-1.03,8.31-3.32,11.32-4.29,5.64-9.76,10.41-14.78,15.48-5.65,5.7-11.38,11.33-17.03,17.03-4.35,4.38-8.59,8.94-15.55,8.4-1.4-.11-2.86-.53-4.12-1.15-9.07-4.49-18.03-9.22-27.19-13.5-1.74-.82-4.49-.6-6.36.16-10.03,4.08-19.66,9.32-29.95,12.49-6.98,2.16-11.09,5.31-12.78,12.34-1.46,6.1-3.71,12.01-5.38,18.06-2.78,10.09-7.76,14.03-18.37,14.08-13.2.05-26.41.08-39.61.05-14.91-.03-18.31-2.47-23-16.6-2.41-7.27-4.55-14.64-7.06-21.88-.51-1.47-1.9-3.13-3.29-3.71-9.93-4.12-20.26-7.38-29.86-12.12-6.67-3.3-12.13-4.54-18.78-.14-5.7,3.77-12.29,6.18-18.36,9.44-7.15,3.84-13.65,3.54-19.52-2.37-11.48-11.55-23.19-22.88-34.23-34.83-2.73-2.95-3.02-8.05-4.91-11.93-.75-1.55-2.68-3.29-4.26-3.5-2.19-.29-4.56,1.17-6.86,1.2-23.06.29-46.13.45-69.2.61-2.61.02-5.22-.24-8.33-.4,4.91,13.87,9.44,26.59,13.91,39.34,1.64,4.68,2.95,9.48,4.8,14.07.82,2.04,3.9,3.85,3.7,5.5-1.25,10.39,4.84,8.45,11.29,7.79,4.25-.44,8.69,1.42,13.06,1.47,7.13.07,14.3-.99,21.39-.62,4.31.23,9,1.47,12.66,3.68,4.77,2.88,6.39,9.37,4.87,13.91-1.8,5.36-8.36,10.67-13.68,11.04-.75.05-1.5.01-2.25.01-98.59,0-197.18-.04-295.77.07-9.29.01-12.49-2.2-15.99-9.52-3.71-7.74,2.01-17.82,10.61-18.39,12.05-.8,24.15-.68,36.23-.99,4.59-.12,10.23,1.19,13.45-1,2.99-2.03,3.45-7.85,4.93-12.03,5.91-16.67,11.79-33.35,17.64-50.03.34-.96.36-2.02.55-3.21-6.05-.42-11.9-1.16-17.74-1.16-64.98-.09-129.95-.05-194.93-.08-10.41,0-20.68-.78-30.23-5.64-10.73-5.46-19.87-12.43-26.49-22.89-6.41-10.13-9.19-20.95-9.2-32.66-.03-145.26-.11-290.52.13-435.78.02-13.08,6.24-24.41,14.76-34.3,7.81-9.06,17.5-15.27,29.03-18.22,5.48-1.4,11.24-2.39,16.87-2.4,197.93-.12,395.86-.23,593.79.05,26.06.04,47.81,12.29,57.8,37.28,2.57,6.43,4.09,13.72,4.17,20.64.57,49.02.68,98.05.79,147.08,0,4.22,1.12,6.11,5.62,5.63,2.93-.31,6.03-.3,8.9.28,8.25,1.67,9.62,8.97,11.71,15.4,2.4,7.36,4.23,14.9,6.72,22.23.58,1.72,2.55,3.73,4.26,4.17,13.25,3.43,25.83,8.32,37.61,15.37,1.27.76,4.07-.26,5.79-1.15,6.88-3.57,13.63-7.41,20.42-11.15,10.66-5.88,16.87-4.77,25.31,3.97,9.17,9.49,18.65,18.7,28.02,28,8.47,8.4,9.52,14.21,4.16,24.98-3.68,7.4-7.73,14.63-11.27,22.09-.83,1.75-.97,4.42-.26,6.2,4.35,10.83,9.56,21.33,13.4,32.32,2.09,5.99,5.67,8.58,11.23,10.13,7.82,2.19,15.82,4.13,23.15,7.48,3.94,1.8,6.65,6.31,9.92,9.59v57.63Zm-892.82-49.7c4.6,0,8.31,0,12.01,0,124.68.03,249.37.05,374.05.09,21.15,0,42.31,0,63.46.12,3.17.02,4.84-.36,4.91-4.31.13-7.28,4.01-12.25,11.11-14.44,6.07-1.88,12.19-3.63,18.22-5.63,6.33-2.1,12.54-3.01,14.84-11.88,2.89-11.13,8.68-21.5,13.17-32.22.49-1.17,1.28-2.81.84-3.67-4.55-8.75-9.86-17.15-13.8-26.15-1.64-3.75-4.57-8.56-.9-13.1,4.46-5.52,8.81-11.14,13.6-16.36,5-5.45,10.42-10.53,15.76-15.67,3.49-3.37,7.01-6.75,10.79-9.77,4.52-3.61,9.82-3.72,14.82-1.37,9.27,4.36,18.32,9.2,27.53,13.71,1.14.56,2.88.79,4.01.34,12.47-5,24.89-10.13,37.26-15.36,1.38-.58,2.92-1.74,3.49-3.03,1.04-2.37,1.3-5.07,2.1-7.56,2.34-7.32,4.55-14.7,7.25-21.89,1.82-4.84,4.57-9.25,10.6-9.67,2.39-.17,4.82-.28,7.19-.05,5.03.49,6.77-1.46,6.74-6.63-.25-48.01-.26-96.02-.38-144.03-.02-8.3-3.29-15.42-8.73-21.52-7.7-8.63-18.32-9.65-28.73-9.65-195.2-.14-390.41-.1-585.61-.1-1.5,0-3.01-.06-4.5.03-11.45.7-20.95,4.85-27.07,15.15-3.75,6.32-4.54,13.14-4.53,20.35.09,113.13.06,226.26.08,339.4,0,1.74.28,3.48.4,4.89Zm804.57-111.7c0-1.65.51-3.34-.09-3.96-2.59-2.66-5.32-6.67-8.36-7.03-3.38-.39-7.18,2.6-10.76,4.22-6.45,2.91-12.72,6.31-19.37,8.61-2.43.84-5.97-.31-8.6-1.46-6.09-2.67-11.92-5.94-17.9-8.87-10.65-5.22-22.61-6.77-33.19-12.68-4.91-2.74-7.28-5.92-8.93-10.46-2.7-7.4-5.66-14.75-7.55-22.36-1.11-4.48-3.52-4.22-6.77-4.12-7.17.22-14.35.14-21.51.46-1.46.06-3.77,1.03-4.15,2.12-2.83,8.2-4.81,16.71-8.02,24.74-1.5,3.76-4.51,7.86-7.95,9.7-7.85,4.19-16.38,7.08-24.65,10.48-8.55,3.52-17.04,7.17-25.69,10.42-3.26,1.23-7.46,2.98-10.23,1.91-8.54-3.29-16.83-7.41-24.74-12.04-4.04-2.36-6.48-3.07-9.98.16-4.55,4.2-9.69,7.86-13.69,12.52-2.15,2.51-6.51,5.72-2.08,10.35,2.32,2.43,4.25,5.37,5.78,8.37,1.59,3.12,2.05,6.84,3.77,9.86,4.43,7.76,3.97,14.81-.73,22.46-7.57,12.32-13.8,25.35-16.51,39.75-1.62,8.63-6.42,13.97-15.09,16.31-6.99,1.89-13.82,4.45-20.52,7.2-1.68.69-3.61,3.17-3.71,4.93-.4,7.18.16,14.41-.23,21.59-.2,3.63,1.95,4.69,4.36,5.53,8.45,2.95,17.18,5.21,25.38,8.73,3.26,1.4,6.42,4.97,7.84,8.32,2.74,6.44,3.64,13.67,6.36,20.12,4,9.48,8.76,18.66,13.55,27.77,3.06,5.83,3.89,11.21.45,17.25-3.52,6.19-6.52,12.69-9.48,19.17-1.42,3.1-5.42,5.69.65,9.65,5.87,3.82,9.84,10.5,14.89,15.69.84.87,3.21,1.25,4.31.71,6.12-3.01,12.1-6.3,18.06-9.62,7.67-4.29,15.29-6.34,23.62-1.39,14.68,8.72,30.11,15.65,46.76,19.95,3.36.87,7.2,4.36,8.59,7.59,3.73,8.71,6.14,17.98,9.35,26.92.46,1.29,2.42,2.86,3.73,2.91,7.94.27,15.91.29,23.85-.02,1.48-.06,3.64-1.72,4.19-3.15,2.33-5.97,4.31-12.09,6.16-18.24,2.55-8.44,5.93-14.24,16.11-17.22,14.96-4.38,28.85-12.44,43.13-19.05,4.28-1.98,8.52-3.91,13.19-1.67,8.83,4.24,17.74,8.37,26.27,13.15,2.78,1.56,3.97.54,5.5-.94,5.44-5.25,10.97-10.42,16.06-15.99,1.25-1.36,1.93-4.55,1.21-6.16-2.72-6.11-6.21-11.87-9.25-17.84-3.8-7.46-6.98-13.9-1.41-23.18,7.02-11.71,11.28-25.19,15.91-38.19,3.5-9.82,8.25-17.37,19.33-19.62,6.26-1.27,12.35-3.49,18.37-5.67,1.55-.56,3.59-2.57,3.64-3.98.33-8.97.17-17.97.17-26.81-7.62-2.65-14.81-5.72-22.29-7.61-8.85-2.23-15.23-6.83-17.21-15.81-3.58-16.16-10.91-30.66-18.47-45.16-1.71-3.29-2.23-7.56-2.08-11.33.1-2.61,2.24-5.16,3.55-7.69,3.24-6.25,6.64-12.43,9.73-18.76.6-1.23.78-3.71.03-4.39-3.56-3.26-6.35-8.14-12.69-7.12ZM68.07,613.74c-.11,1.11-.26,1.97-.26,2.83,0,16.95-.07,33.91.07,50.86.09,10.85,4.99,19.31,13.73,25.55,2.61,1.86,5.34,4.39,8.27,4.81,6.55.92,13.25.92,19.89.92,64.21.03,128.42-.05,192.63-.05,90.31,0,180.62.02,270.94.01,2.58,0,5.15-.32,8.4-.54-1.53-3.73-2.68-6.55-3.83-9.36-4.34-10.56-8.61-21.14-13.1-31.64-.68-1.59-2.16-3.42-3.69-3.96-7.65-2.71-15.46-4.94-23.14-7.57-1.53-.52-2.83-3.11-4.03-2.98-7.6.84-9.1-4.8-10.38-9.89-1.06-4.23-1.24-8.85-.91-13.23.37-4.98-1.2-6.19-6.15-6.18-148.09.17-296.18.16-444.26.2-1.31,0-2.62.13-4.16.22Zm402.22,181.47c-2.53-6.76-4.94-12.99-7.18-19.28-1.41-3.93-2.47-7.99-3.87-11.92-3.31-9.34-6.9-18.59-10.06-27.98-2.76-8.19-2.59-8.22-11.2-8.22-28.49.02-56.97-.07-85.46.1-2.12.01-5.46,1.26-6.13,2.82-2.07,4.89-2.88,10.29-4.62,15.34-4.13,12-8.48,23.92-12.82,35.84-1.56,4.3-3.34,8.53-5.22,13.29h146.56Z"/>
  <path class="cls-1" d="m235.65,395.94c7.76,3.49,15.59,6.84,23.24,10.54,2.6,1.26,4.63,3.68,7.16,5.13,20.66,11.84,41.42,23.51,62.07,35.36,7.97,4.58,10.09,9.61,8.05,17.64-1.94,7.63-11.38,12.15-18.32,8.5-14.42-7.6-28.77-15.32-43.09-23.1-11.38-6.18-22.77-12.37-33.97-18.86-8.21-4.75-16.07-10.11-24.21-14.98-3.13-1.87-6.76-2.91-9.91-4.76-4.12-2.42-8.51-4.73-11.83-8.05-5.31-5.3-5.49-13.42,1.15-19.31,3.21-2.85,7.04-5.09,10.8-7.22,19.52-11.04,39.11-21.95,58.67-32.92,12.02-6.75,23.97-13.61,36.03-20.27,5.23-2.89,10.53-5.72,16.04-8.01,6.7-2.79,14.46.16,17.67,6.58,3.36,6.72,2.01,15.05-4.44,18.8-15.85,9.19-32.05,17.78-48.04,26.72-12.17,6.8-24.23,13.79-36.36,20.67-3.45,1.95-6.96,3.79-10.44,5.68-.09.62-.19,1.24-.28,1.86Z"/>
  <path class="cls-1" d="m560.55,394.4c-5.1-2.96-9.28-5.48-13.55-7.87-17.24-9.62-34.51-19.17-51.75-28.79-9.79-5.46-19.47-11.11-29.33-16.44-9.23-4.99-11.14-18.84-.17-24.7,3.45-1.84,9.6-1.69,13.13.17,25.84,13.59,51.38,27.73,76.89,41.92,14.11,7.85,28.31,15.62,41.83,24.42,9.41,6.13,8.64,17.79-1.02,23.64-14.95,9.04-30.14,17.7-45.34,26.32-16.35,9.28-32.76,18.46-49.28,27.43-8.75,4.75-17.67,9.23-26.76,13.27-4.98,2.21-11.24-.73-14.87-5.87-3.63-5.13-3.55-10.63.33-15.47,1.02-1.28,2.11-2.64,3.47-3.48,12.75-7.93,25.3-16.22,38.42-23.5,17.8-9.88,36.04-18.95,54.08-28.4,1.02-.53,1.92-1.29,3.92-2.66Z"/>
  <path class="cls-1" d="m436.18,289.81c-1.87,8.72-4.1,19.51-6.5,30.26-5.06,22.56-10.17,45.12-15.33,67.65-4.48,19.56-8.99,39.12-13.64,58.64-4,16.76-8.14,33.49-12.38,50.19-1.09,4.31-2.29,8.73-4.32,12.64-3.09,5.96-10.04,8.2-15.72,5.83-6.61-2.77-10.39-10.07-8.99-16.48,5.28-24.13,10.32-48.31,15.64-72.43,2.12-9.6,4.93-19.04,7.11-28.63,6.46-28.38,12.72-56.81,19.14-85.21,1.9-8.41,3.94-16.8,6.2-25.11.79-2.92,2.07-5.87,3.79-8.35,3.71-5.33,9.84-6.89,16.27-4.68,4.82,1.66,8.88,7.91,8.73,15.66Z"/>
  <path class="cls-1" d="m740.89,517.09c52.69-.55,87.18,40.88,89.32,82.15,2.93,56.41-41.67,90.75-80.3,94.33-56.38,5.24-100.14-44.04-96.91-93.95,2.71-41.9,39.43-83.79,87.88-82.53Zm-.08,28.81c-28.04-2.22-61.8,26-59.21,66.32,1.63,25.37,32.23,54.43,60.38,53.28,32.33-1.32,59.1-25.82,59.58-59.41.48-33.2-26.19-61.66-60.75-60.19Z"/>
</svg>